<?xml version="1.0" encoding="UTF-8"?>
<!-- Generated by Pixelmator Pro 3.5.7 -->
<svg width="1150" height="803" viewBox="0 0 1150 803" xmlns="http://www.w3.org/2000/svg">
    <text id="arboreal" xml:space="preserve" x="-4" y="802" font-family="Quantify" font-size="192" font-weight="700" fill="#000000" letter-spacing="4.608">arboreal</text>
    <path id="Path-copy-2" fill="#000000" stroke="none" d="M 406.237915 513.009583 L 178.318542 513.009583 L 144.460693 585.540833 L -0.056274 585.540833 L -0.056274 564.109558 L 260.071686 1.178589 L 323.65799 1.178589 L 584.608398 564.109558 L 584.608398 585.540833 L 440.095764 585.540833 L 406.237915 513.009583 Z M 291.453583 235.251587 L 226.213867 386.906677 L 358.34259 386.906677 L 291.453583 235.251587 Z"/>
    <path id="Path-copy" fill="#000000" stroke="none" d="M 1035.478149 381.136536 C 1181.640137 282.230713 1140.35437 9.42041 913.257568 8.598022 C 829.02417 8.598022 743.137329 8.598022 659.730713 8.598022 C 659.730713 201.461975 659.730713 393.499207 659.730713 585.540833 C 691.71344 585.540833 724.814331 585.540833 758.02179 585.540833 L 807.554626 585.540833 L 826.435852 585.540833 L 826.435852 522.141479 L 723.778259 522.141479 C 718.188171 522.141479 712.998718 519.246338 710.047058 514.495239 C 707.104492 509.753235 706.828003 503.811584 709.314087 498.802185 L 761.904053 392.993225 L 738.270081 392.993225 C 732.271973 392.993225 726.758118 389.678833 723.978027 384.346558 C 721.178711 379.033508 721.577698 372.596985 725.015137 367.654175 L 797.145264 263.891785 L 763.865356 263.891785 C 757.913635 263.891785 752.458862 260.616821 749.659058 255.389526 C 746.840088 250.161133 747.135681 243.771484 750.43042 238.829712 L 846.622192 93.732178 C 849.631348 89.199463 854.687134 86.495483 860.076904 86.495483 C 865.494263 86.495483 870.542114 89.199463 873.532593 93.732178 L 968.876831 237.544861 C 971.162598 240.315918 972.533203 243.876953 972.533203 247.75177 C 972.533203 256.674866 965.039429 263.891785 956.345825 263.891785 C 956.317139 263.891785 956.288818 263.891785 956.288818 263.891785 L 923.046875 263.891785 L 994.338989 366.378906 C 996.747803 369.216492 998.185059 372.872925 998.185059 376.871826 C 998.185059 385.784241 990.96814 392.993225 982.046631 392.993225 C 982.026855 392.993225 981.979004 392.993225 981.941162 392.993225 L 958.268799 392.993225 L 1010.821045 498.812256 C 1013.307007 503.811584 1013.020996 509.753235 1010.07959 514.495239 C 1007.136353 519.246338 1001.937378 522.141479 996.356812 522.141479 L 891.892822 522.141479 L 891.892822 585.540833 L 983.453491 585.540833 L 1015.086792 585.540833 L 1148.613281 585.540833 L 1148.613281 564.109558 L 1035.478149 381.136536 Z"/>
</svg>
