<svg id="Layer_1" data-name="Layer 1" xmlns="http://www.w3.org/2000/svg" viewBox="0 0 368.5 368.5"><defs><style>.cls-1{font-size:42.58px;fill:#322f33;font-family:QuantifyBold, Quantify;letter-spacing:0.1em;}.cls-2{letter-spacing:0.08em;}.cls-3{letter-spacing:0em;}.cls-4{letter-spacing:0.12em;}.cls-5{letter-spacing:0.1em;}.cls-6{fill:#048181;}</style></defs><title>Logotyp Arboreal Grön V17</title><text class="cls-1" transform="translate(42.52 266.63)">arb<tspan class="cls-2" x="114.95" y="0">o</tspan><tspan class="cls-3" x="156.85" y="0">r</tspan><tspan class="cls-4" x="181.41" y="0">e</tspan><tspan class="cls-5" x="223.99" y="0">al</tspan></text><path class="cls-6" d="M141.18,201.47H86.48l-8.13,17.4H43.67v-5.14L106.1,78.63h15.26L184,213.73v5.14H149.3ZM113.63,134.8,98,171.2h31.71Z"/><path class="cls-6" d="M292.19,169.82c35.08-23.74,25.18-89.22-29.33-89.41H202V218.87h40V203.66H217.39a3.87,3.87,0,0,1-3.47-5.6l12.62-25.4h-5.68a3.87,3.87,0,0,1-3.18-6.08L235,141.68h-8a3.88,3.88,0,0,1-3.23-6l23.09-34.82a3.87,3.87,0,0,1,6.46,0l22.88,34.51a3.84,3.84,0,0,1,.88,2.45,3.92,3.92,0,0,1-3.89,3.88h-8l17.11,24.59a3.88,3.88,0,0,1-2.95,6.39h-5.71l12.62,25.4a3.88,3.88,0,0,1-3.47,5.6H257.73v15.21h61.62v-5.14Z"/></svg>