<svg width="39" height="40" viewBox="0 0 39 40" fill="none" xmlns="http://www.w3.org/2000/svg">
<path d="M7.58448 31.0367H31.0263C31.4074 31.0367 31.7157 30.7285 31.7157 30.3473C31.7157 29.9662 31.4074 29.6579 31.0263 29.6579H28.2687V15.1794C28.2687 14.7982 27.9604 14.49 27.5793 14.49H26.2005C25.8193 14.49 25.5111 14.7982 25.5111 15.1794V29.6589H22.7535V17.937C22.7535 17.5558 22.4452 17.2476 22.064 17.2476H20.6852C20.3041 17.2476 19.9958 17.5558 19.9958 17.937V29.6579H17.2382V20.6946C17.2382 20.3135 16.93 20.0052 16.5488 20.0052H15.17C14.7889 20.0052 14.4806 20.3135 14.4806 20.6946V29.6579H11.723V24.831C11.723 24.4499 11.4147 24.1416 11.0336 24.1416H9.65269C9.27154 24.1416 8.96329 24.4509 8.96329 24.831V29.6579H7.58448C7.20333 29.6579 6.89508 29.9662 6.89508 30.3473C6.89508 30.7285 7.20333 31.0367 7.58448 31.0367Z" fill="white"/>
<path d="M8.37074 20.3582C8.49466 20.5676 8.7196 20.6957 8.96329 20.6957C9.08722 20.6957 9.20906 20.6623 9.31528 20.5988L26.516 10.3869L26.2213 11.5647C26.1765 11.7428 26.2046 11.9302 26.2994 12.0875C26.3931 12.2447 26.5462 12.3572 26.7232 12.402C26.7774 12.4155 26.8336 12.4228 26.8899 12.4228C27.2065 12.4228 27.4814 12.2072 27.5574 11.9011L28.2468 9.14345C28.2916 8.96537 28.2635 8.77792 28.1687 8.62067C28.075 8.46342 27.9219 8.35095 27.7449 8.30617L24.9872 7.61677C24.7456 7.55012 24.4874 7.61989 24.3124 7.79901C24.1375 7.97709 24.0729 8.23744 24.1437 8.47696C24.2145 8.71648 24.4093 8.89977 24.653 8.95496L25.7558 9.23093L8.61026 19.4127C8.45301 19.5064 8.3395 19.6584 8.29472 19.8355C8.24994 20.0125 8.27701 20.201 8.37074 20.3582Z" fill="white"/>
<path d="M19.3054 1.3892V0.664386C19.3064 0.418617 19.171 0.193675 18.9544 0.0780804C18.7378 -0.0375145 18.4744 -0.0239764 18.2713 0.113488L16.1531 1.5277C15.9688 1.65059 15.8584 1.85783 15.8584 2.07964C15.8584 2.30146 15.9688 2.5087 16.1531 2.63158L18.2713 4.0458C18.4744 4.18326 18.7378 4.1968 18.9544 4.0812C19.171 3.96561 19.3064 3.73963 19.3054 3.49386V2.76905C29.2059 2.76905 37.232 10.7951 37.232 20.6956C37.232 30.5962 29.2059 38.6222 19.3054 38.6222C9.40484 38.6222 1.37881 30.5951 1.37881 20.6946C1.37881 20.3134 1.07055 20.0052 0.689404 20.0052C0.308253 20.0052 0 20.3134 0 20.6946C0 31.3574 8.64358 40 19.3054 40C29.9672 40 38.6108 31.3564 38.6108 20.6946C38.6108 10.0328 29.9672 1.3892 19.3054 1.3892Z" fill="white"/>
<path d="M0.790419 18.6191C0.825827 18.6243 0.860193 18.6264 0.8956 18.6264C1.23718 18.6264 1.52669 18.3754 1.57667 18.038C1.61 17.8152 1.6454 17.5944 1.6881 17.3736C1.75163 17.0018 1.50482 16.6488 1.13512 16.579C0.764384 16.5103 0.407186 16.7508 0.333247 17.1205C0.289508 17.3569 0.248893 17.5944 0.213486 17.836C0.158292 18.2119 0.415517 18.5618 0.790419 18.6191Z" fill="white"/>
<path d="M1.51731 15.1388C1.87555 15.2658 2.27024 15.0773 2.39729 14.7191C2.47644 14.4962 2.55975 14.2754 2.64723 14.0557C2.73887 13.8266 2.70138 13.5663 2.54829 13.3726C2.39625 13.1789 2.15152 13.081 1.90784 13.1164C1.66415 13.1518 1.45691 13.3142 1.36631 13.5433C1.27259 13.7797 1.18303 14.0172 1.09763 14.2588C0.970581 14.6191 1.15803 15.0117 1.51731 15.1388Z" fill="white"/>
<path d="M3.02525 11.6313C3.13356 11.697 3.25644 11.7324 3.38349 11.7313C3.62406 11.7313 3.84796 11.6064 3.97292 11.4012C4.11039 11.1763 4.25202 10.9544 4.39781 10.7368C4.60922 10.4202 4.52486 9.99115 4.20932 9.77974C3.89274 9.5673 3.46368 9.65269 3.25228 9.96824C3.09503 10.2026 2.94298 10.441 2.79615 10.6826C2.70034 10.8388 2.67118 11.0263 2.71492 11.2044C2.75761 11.3825 2.86904 11.5355 3.02525 11.6313Z" fill="white"/>
<path d="M5.51523 8.8779C5.70997 8.8779 5.89534 8.79563 6.02656 8.65191C6.20255 8.45717 6.38375 8.26764 6.56808 8.08123C6.83676 7.81047 6.83468 7.37412 6.56496 7.10544C6.29419 6.8378 5.85785 6.83884 5.58917 7.10961C5.38922 7.3106 5.19448 7.51679 5.00495 7.72611C4.82166 7.92814 4.7748 8.21973 4.88519 8.46863C4.99557 8.71752 5.24238 8.8779 5.51523 8.8779Z" fill="white"/>
<path d="M8.27389 6.38792C8.42072 6.38688 8.56444 6.33897 8.68316 6.25046C8.8654 6.11299 9.05077 5.9849 9.23926 5.85577C9.44233 5.71726 9.55689 5.47982 9.53918 5.2351C9.52044 4.98933 9.3736 4.77167 9.15074 4.66441C8.92893 4.55715 8.66753 4.57693 8.46342 4.71544C8.26035 4.8529 8.0604 4.99453 7.86358 5.14033C7.62718 5.31841 7.52929 5.6277 7.62301 5.90888C7.7157 6.19005 7.97813 6.38063 8.27389 6.38167V6.38792Z" fill="white"/>
<path d="M11.1492 4.64567C11.2533 4.64567 11.3564 4.62171 11.4501 4.57693C11.6345 4.48841 11.8178 4.40198 12.0021 4.31971C12.227 4.21973 12.3811 4.00625 12.4061 3.76152C12.4311 3.51575 12.3249 3.27623 12.125 3.13148C11.925 2.98672 11.6636 2.95965 11.4387 3.06066C11.2387 3.15022 11.0409 3.24291 10.8451 3.33663C10.5556 3.47722 10.4015 3.79901 10.4744 4.11247C10.5473 4.42593 10.8274 4.64775 11.1492 4.64567Z" fill="white"/>
</svg>
